<?xml version="1.0" encoding="utf-8"?>
<!-- Generator: Adobe Illustrator 26.0.3, SVG Export Plug-In . SVG Version: 6.00 Build 0)  -->
<svg version="1.0" id="Layer_1" xmlns="http://www.w3.org/2000/svg" xmlns:xlink="http://www.w3.org/1999/xlink" x="0px" y="0px"
	 viewBox="0 0 745.9 565.9" style="enable-background:new 0 0 745.9 565.9;" xml:space="preserve">
<style type="text/css">
	.st0{fill:#06EAC3;}
	.st1{fill:#8FF6E5;}
	.st2{fill:#232021;}
	.st3{fill:#FDFFFE;}
	.st4{fill:#000302;}
	.st5{fill:#000202;}
	.st6{fill:#000504;}
	.st7{fill:#000403;}
	.st8{fill:#000907;}
	.st9{fill:#06E9C2;}
	.st10{fill:#06E8C1;}
</style>
<path class="st0" d="M135.9,290.1V279c0.2-0.3,0.5-0.6,0.6-1c0.3-1.7,0.3-3.4,0.2-5.2c0.2-4.7,0.6-9.4,1-14.1
	c1-10.6,2.8-21.1,5.3-31.4c13-52.5,40.5-95.9,82.8-129.7c39.4-31.5,84.6-48.4,135-51.3c2.8,0.2,5.6,0,8.3-0.5h7.9
	c3.1,0.5,6.2,0.6,9.2,0.5c6.1,0.4,12.1,0.9,18.2,1.7c10.6,1.4,21.1,3.5,31.5,6.3c76.9,21.1,138,79.5,162.7,155.3
	c4.1,12.6,7.1,25.5,9,38.7c1.2,7.2,1.8,14.5,2,21.9c0,0.8-0.1,1.5-0.1,2.3c0,6.7,0,13.3,0,20c0,1.1,0,2.1,0.1,3.2
	c0,1.6,0,3.2-0.1,4.9c-0.6,7.6-1.5,15.2-2.8,22.7c-19,110.2-112.5,192-224.2,196.3c-0.6,0-1.2-0.1-1.8-0.1c-5,0.2-9.9,0.2-14.9,0
	c-0.6,0-1.2,0.1-1.8,0.1c-5.6-0.3-11.2-0.7-16.8-1.3c-10.5-1.1-20.9-3-31.1-5.6c-52.4-13.3-95.3-41.2-128.9-83.5
	c-27.8-35.2-44.9-77.6-49.4-122.1c-0.4-4.3-0.8-8.6-0.9-12.9C136.8,292.7,136.5,291.3,135.9,290.1z M520,284
	c-0.2-0.6-0.4-1.2-0.6-1.9c-7.3-25.9-14.5-51.8-21.8-77.6c-2.3-8.2-4.6-16.3-6.9-24.5c-0.5-1.7-0.5-1.7-2.2-1.7h-14.1
	c-2.8,0-2.4-0.1-3.1,2.4c-7.9,28-15.8,56-23.6,84.1c-1.7,6.1-3.4,12.2-5.1,18.2c-0.1,0.5-0.2,1-0.8,1.2c-0.1-0.4-0.2-0.7-0.3-1
	c-1.3-5.2-2.5-10.3-3.8-15.5c-6.4-26.3-12.8-52.7-19.2-79c-0.8-3.1-1.5-6.1-2.3-9.2c-0.3-1.1-0.4-1.1-1.4-1.2c-0.5,0-1.1,0-1.6,0
	h-18c-3.7,0-3.2-0.2-2.4,3c4.5,17.4,9.1,34.9,13.7,52.3c8,30.7,16,61.4,24.1,92.1c0.1,0.5,0.3,0.9,0.4,1.3c0.1,0.4,0.5,0.6,0.9,0.6
	c0.5,0,0.9,0,1.4,0h15.5c2.3,0,2.1,0.2,2.7-2.2l24.4-84.6l4.5-15.5c0.1-0.4,0.2-0.7,0.4-1.1c0.1-0.1,0.2-0.2,0.3-0.2
	c0.1,0,0.3,0.1,0.3,0.2c0.2,0.6,0.4,1.2,0.5,1.8l26.9,92.5c0.8,2.7,1.5,5.3,2.3,8c0.3,1,0.5,1.1,1.5,1.1c0.5,0,0.9,0,1.4,0h14.8
	c2.9,0,2.4,0.2,3-2.4c12.6-48.2,25.2-96.4,37.8-144.6c0.1-0.5,0.3-1,0.4-1.6c0.1-0.6-0.1-0.8-0.7-0.9c-0.2,0-0.3,0-0.5,0
	c-7,0-14,0-21,0c-1.4,0-1.4,0-1.7,1.3c-0.8,3.1-1.5,6.3-2.3,9.4c-6.4,26.3-12.8,52.7-19.2,79c-1.2,4.9-2.4,9.9-3.6,14.8
	C520.7,283.3,520.7,283.9,520,284L520,284z M268.7,251c0.3-0.6,1-0.7,1.5-1c2-1,3.9-2.2,5.6-3.7c7.2-6,11.7-14.6,12.3-24
	c0.3-3.8,0.1-7.6-0.5-11.3c-1.6-9.3-5.8-17.2-13.2-23.1c-4-3.1-8.6-5.5-13.4-7c-6-1.8-12.2-2.7-18.5-2.6c-18.3,0-36.5,0-54.8,0
	c-3,0-2.7-0.2-2.7,2.8c0,47.9,0,95.8,0,143.8c0,3-0.3,2.9,2.9,2.9h55.7c2.1,0,4.2,0,6.2-0.1c5.5-0.2,10.9-1.3,16-3.3
	c11.8-4.6,19.6-13,23.1-25.3c1.9-6.7,2.3-13.7,1.1-20.6c-2-12.1-8.5-20.9-19.5-26.4C269.8,251.8,269.2,251.5,268.7,251L268.7,251z
	 M346,328h41.8c0.7,0,1.4,0,2.1-0.1c0.3,0,0.6-0.3,0.6-0.6c0-0.6,0.1-1.2,0.1-1.8c0-4.8,0-9.7,0-14.6c0-0.5,0-0.9,0-1.4
	c0-0.9-0.2-1.1-1.1-1.2s-1.4,0-2.1,0h-56c-0.7,0-1.4,0-2.1,0c-0.2,0-0.4-0.1-0.6-0.2c-0.2-0.2,0-0.4,0.1-0.6l1.2-1.4
	c10.1-12.3,20.1-24.6,30.1-36.9c6.1-7.5,12.2-14.9,18.2-22.4c2.4-3,4.7-6.1,6.6-9.5c2.4-4,4-8.3,4.9-12.9c1.2-6.6,0.9-13.3-0.6-19.7
	c-3.5-14.3-12.3-23.9-26.2-28.7c-5.6-1.8-11.4-2.7-17.3-2.6c-4.9,0-9.7,0.6-14.4,2c-12,3.6-20.9,11-26,22.5
	c-2.3,5.3-3.5,10.9-3.7,16.6c-0.1,2,0,2.1,2,2.1h18c0.3,0,0.6,0,0.9,0c0.8,0,1-0.2,1-0.9c0-0.5,0-0.9,0.1-1.4
	c0.1-2.5,0.6-5.1,1.4-7.5c1.9-6,6.6-10.7,12.6-12.5c4.4-1.5,9.1-1.7,13.7-0.8c7.8,1.5,13.2,5.9,15.7,13.4c2.8,7.8,2,16.5-2.3,23.6
	c-1.5,2.5-3.2,4.9-5.1,7.1l-43.8,53.2l-13.4,16.2c-0.7,0.6-1.1,1.5-1.1,2.5c0,5.7,0,11.4,0,17.1c0,1.2,0.1,1.3,1.3,1.4
	c0.6,0,1.2,0,1.9,0L346,328z M366.2,385.6c-0.5-0.2-1.1-0.3-1.6-0.2h-16.2c-0.4,0-0.8,0-1.1,0c-0.4,0-0.8,0.3-0.9,0.7
	c0,0.1,0,0.1,0,0.2v6.7c-0.1,0.4,0.2,0.8,0.6,0.8c0.1,0,0.1,0,0.2,0c2.5,0,5.1,0,7.6,0c0.5,0,1-0.2,1.6,0.3
	c-0.8,2.5-2.7,4.5-5.1,5.6c-4,1.8-8.6,1.2-12-1.6c-4.2-3.2-5.8-7.6-5.1-12.9c0.8-5,4.4-9.1,9.2-10.5c5.2-1.3,9.4,0.4,12.7,4.4
	c0.4,0.5,0.7,1.2,1.5,1.7c1.8-1.7,3.7-3.4,5.5-5.1c0.4-0.4,0.3-0.8,0-1.2c-2.4-3.8-6-6.7-10.3-8.2c-3.9-1.2-8.1-1.4-12.1-0.4
	c-8.4,2.2-14.8,9.2-16.1,17.8c-0.5,3.1-0.4,6.3,0.4,9.4c2.2,8.4,7.4,14.1,15.9,16.3c2.7,0.7,5.5,0.8,8.3,0.2
	c4.6-0.8,8.7-2.6,11.9-6.2C365.7,398.1,367.1,392.2,366.2,385.6L366.2,385.6z M266.1,387.3v19.2c0,0.6,0,1.2,0,1.9
	c0,0.4,0.3,0.7,0.7,0.7c0,0,0,0,0,0c0.3,0,0.6,0,0.9,0h13.2c1.8,0,3.5-0.2,5.3-0.6c7.6-1.9,12.6-6.5,14.8-14
	c1.3-4.3,1.3-8.9,0.2-13.2c-1.8-7.3-6.2-12.2-13.4-14.5c-2.4-0.7-4.8-1-7.3-0.9c-4.2,0-8.3,0-12.5,0c-0.4,0-0.8,0-1.1,0
	c-0.4,0-0.7,0.3-0.7,0.7c0,0,0,0,0,0c0,0.6,0,1.2,0,1.9L266.1,387.3z M416.7,408.8c0.1,0.1,0.3,0.2,0.4,0.2c2.6,0,5.2,0,7.9,0
	c0.5,0,0.9-0.3,1-0.7c0.9-2.1,1.8-4.3,2.6-6.4c0.2-0.8,1-1.4,1.8-1.3c4.7,0,9.4,0,14.1,0h0.7c0.3,0,0.6,0.2,0.7,0.5
	c0.2,0.6,0.5,1.1,0.7,1.7c0.7,1.8,1.5,3.6,2.2,5.4c0.1,0.5,0.6,0.9,1.2,0.9c2.5,0,5.1,0,7.6,0c0.6,0,0.8-0.3,0.6-0.9s-0.4-1-0.6-1.5
	l-15.7-38.4c-0.2-0.6-0.5-1.1-0.7-1.7c-0.1-0.5-0.6-0.8-1.1-0.7c-1.8,0-3.5,0-5.3,0c-0.7-0.1-1.4,0.4-1.6,1
	c-0.8,2.1-1.6,4.2-2.5,6.2c-4.5,11.2-9,22.4-13.5,33.7C417,407.4,416.5,408,416.7,408.8L416.7,408.8z M388,374.6
	c0.3,0.3,0.8,0.4,1.2,0.4h3.7c1.3,0,2.6,0,3.9,0c0.7,0,0.9,0.2,1,1s0,1.4,0,2.1v28.2c0,0.6,0,1.2,0,1.9c0,0.8,0.2,1,1,1
	c2.2,0,4.3,0,6.5,0s2,0,2-2.1c0-9.8,0-19.6,0-29.4c0-3-0.3-2.7,2.8-2.7c2.1,0,4.2,0,6.2,0c0.5,0,0.9-0.2,0.9-0.8c0-2.5,0-5.1,0-7.6
	c0-0.4-0.3-0.7-0.7-0.7c0,0,0,0-0.1,0c-0.5,0-1.1,0-1.6,0h-24.4c-0.5,0-1.1,0-1.6,0c-0.5,0-0.9,0.2-0.9,0.8L388,374.6z M474.7,399.7
	v-31c0-0.6,0-1.2,0-1.9c0-1-0.1-1.1-1-1.1c-2.4,0-4.8,0-7.2,0c-0.9,0-1,0.2-1.1,1.1c0,0.5,0,1.1,0,1.6v37.9c0,0.5,0,0.9,0,1.4
	c0,1.1,0.2,1.2,1.2,1.3h20.1c0.6,0,0.8-0.4,0.8-0.9c0-2.5,0-4.9,0-7.4c0-0.9-0.2-1-1.1-1c-3,0-6,0-9,0L474.7,399.7z M382.3,387.5
	V378c0-3.5,0-7.1,0-10.6c0-1.6,0-1.6-1.7-1.6s-3.4,0-5.1,0c-2.9,0-2.6-0.2-2.6,2.6v38.3c0,0.5,0,1.1,0,1.6s0.4,0.8,0.9,0.8h5.5
	c0.7,0,1.4,0,2.1,0c0.5,0,0.9-0.2,0.9-0.8s0-1.1,0-1.6L382.3,387.5z M308.8,387.3v19.2c0,0.6,0,1.2,0,1.9c0,0.4,0.2,0.7,0.6,0.7
	c0,0,0.1,0,0.1,0h7.8c0.4,0,0.7-0.3,0.7-0.6c0,0,0-0.1,0-0.1c0-0.5,0-1.1,0-1.6c0-12.9,0-25.7,0-38.6c0-0.5,0-1.1,0-1.6
	c0-0.4-0.3-0.7-0.6-0.7c0,0-0.1,0-0.1,0h-7.9c-0.4,0-0.7,0.3-0.7,0.7c0,0,0,0.1,0,0.1c0,0.6,0,1.2,0,1.8L308.8,387.3z"/>
<path class="st1" d="M609.6,270.2c0.1,0,0.3,0,0.4,0v25.4h-0.2l-0.2,0c0-1.1-0.1-2.1-0.1-3.2c0-6.7,0-13.3,0-20
	C609.5,271.7,609.5,270.9,609.6,270.2z"/>
<path class="st1" d="M382.4,519.5c0,0.1,0,0.3,0,0.5h-18.5c0-0.1,0-0.3,0-0.5c0.6,0,1.2-0.1,1.8-0.1c5,0.2,9.9,0.2,14.9,0
	C381.2,519.4,381.8,519.5,382.4,519.5z"/>
<path class="st1" d="M135.9,273l0.7-0.1c0.2,1.7,0.1,3.5-0.2,5.2c0,0.3-0.4,0.6-0.6,1V273z"/>
<path class="st1" d="M386.1,45.9v0.5c-3.1,0.2-6.2,0-9.2-0.5H386.1z"/>
<path class="st1" d="M360.7,46.3v-0.5h8.3C366.3,46.4,363.5,46.5,360.7,46.3z"/>
<path class="st2" d="M520,284c0.7-0.1,0.7-0.7,0.8-1.1c1.2-4.9,2.4-9.9,3.6-14.8c6.4-26.3,12.8-52.7,19.2-79
	c0.8-3.1,1.5-6.3,2.3-9.4c0.3-1.3,0.4-1.3,1.7-1.3c7,0,14,0,21,0c0.2,0,0.3,0,0.5,0c0.6,0.1,0.9,0.3,0.7,0.9s-0.2,1-0.4,1.6
	c-12.6,48.2-25.2,96.4-37.8,144.6c-0.7,2.5-0.2,2.4-3,2.4h-14.8c-0.5,0-0.9,0-1.4,0c-1,0-1.2-0.1-1.5-1.1c-0.8-2.7-1.6-5.3-2.3-8
	l-26.9-92.5c-0.2-0.6-0.4-1.2-0.5-1.8c-0.1-0.1-0.2-0.2-0.3-0.2c-0.1,0-0.3,0.1-0.3,0.2c-0.1,0.4-0.3,0.7-0.4,1.1l-4.5,15.5
	l-24.4,84.6c-0.7,2.3-0.4,2.2-2.7,2.2h-15.5c-0.5,0-0.9,0-1.4,0c-0.4,0-0.8-0.2-0.9-0.6c-0.1-0.4-0.3-0.9-0.4-1.3
	c-8-30.7-16-61.4-24.1-92.1c-4.6-17.4-9.1-34.9-13.7-52.3c-0.9-3.3-1.4-3,2.4-3h18c0.5,0,1.1,0,1.6,0c1,0.1,1.1,0.1,1.4,1.2
	c0.8,3.1,1.5,6.1,2.3,9.2c6.4,26.3,12.8,52.7,19.2,79c1.3,5.2,2.5,10.3,3.8,15.5c0.1,0.3,0.1,0.6,0.3,1c0.6-0.2,0.7-0.8,0.8-1.2
	c1.7-6.1,3.4-12.2,5.1-18.2c7.9-28,15.8-56,23.6-84.1c0.7-2.5,0.3-2.4,3.1-2.4h14.1c1.7,0,1.7,0,2.2,1.7c2.3,8.2,4.6,16.3,6.9,24.5
	c7.3,25.9,14.5,51.8,21.8,77.6C519.6,282.8,519.8,283.4,520,284z"/>
<path class="st2" d="M268.7,251c0.5,0.5,1.1,0.8,1.8,1c11,5.5,17.5,14.3,19.5,26.4c1.2,6.9,0.8,13.9-1.1,20.6
	c-3.4,12.3-11.2,20.6-23.1,25.3c-5.1,2-10.5,3.1-16,3.3c-2.1,0.1-4.2,0.1-6.2,0.1h-55.7c-3.2,0-2.9,0.2-2.9-2.9
	c0-47.9,0-95.9,0-143.8c0-2.9-0.3-2.8,2.7-2.8c18.3,0,36.5,0,54.8,0c6.2-0.1,12.5,0.8,18.5,2.6c4.9,1.5,9.4,3.9,13.4,7
	c7.4,6,11.6,13.8,13.2,23.1c0.7,3.7,0.8,7.5,0.5,11.3c-0.6,9.4-5.1,18-12.3,24c-1.7,1.4-3.6,2.7-5.6,3.7
	C269.7,250.3,269,250.4,268.7,251z M207.7,284.5c0,7,0,14,0,21c0,1.8,0,1.8,1.8,1.8c0.5,0,1.1,0,1.6,0h23.8c2.8,0,5.7,0,8.5,0
	c2.9,0,5.8-0.3,8.7-1.1c7.7-2.3,12.8-7.2,14.9-15c1-3.5,1.1-7.2,0.6-10.8c-1.3-8.6-6.2-14.4-14.5-17.2c-2.9-1-5.8-1.4-8.8-1.4h-34.7
	c-0.4,0-0.8,0-1.2,0c-0.6,0-0.8,0.4-0.8,0.9s0,1.2,0,1.9L207.7,284.5z M207.7,220.2v18.7c0,0.6,0,1.2,0,1.9c0,0.4,0.3,0.7,0.7,0.7
	c0,0,0,0,0.1,0c0.7,0,1.4,0,2.1,0H238c1.6,0,3.2,0,4.9,0c4.4-0.1,8.7-1.2,12.6-3.2c4.8-2.6,8.3-7.2,9.4-12.5
	c0.6-2.7,0.7-5.5,0.5-8.3c-0.2-2.3-0.7-4.6-1.7-6.7c-2.3-5.2-6.4-8.5-11.8-10.4c-3.4-1.1-6.9-1.7-10.4-1.7c-10.6,0-21.3,0-31.9,0
	c-2,0-2,0-2,2.1C207.6,207.3,207.6,213.7,207.7,220.2L207.7,220.2z"/>
<path class="st3" d="M346,327.9h-41.4c-0.6,0-1.2,0-1.9,0c-1.2,0-1.3-0.2-1.3-1.4c0-5.7,0-11.4,0-17.1c0-0.9,0.4-1.8,1.1-2.5
	l13.4-16.2l43.8-53.2c1.9-2.2,3.6-4.6,5.1-7.1c4.2-7.1,5.1-15.8,2.3-23.6c-2.5-7.5-7.9-12-15.7-13.4c-4.6-0.9-9.3-0.6-13.7,0.8
	c-6,1.8-10.7,6.5-12.6,12.5c-0.8,2.4-1.3,4.9-1.4,7.5c0,0.5,0,0.9-0.1,1.4c-0.1,0.7-0.3,0.9-1,0.9c-0.3,0-0.6,0-0.9,0h-18
	c-2,0-2.1-0.1-2-2.1c0.2-5.7,1.4-11.3,3.7-16.6c5.2-11.6,14-18.9,26-22.5c4.7-1.4,9.5-2,14.4-2c5.9-0.1,11.7,0.7,17.3,2.6
	c13.9,4.8,22.7,14.4,26.2,28.7c1.6,6.5,1.8,13.2,0.6,19.7c-0.8,4.6-2.5,8.9-4.9,12.9c-2,3.3-4.2,6.5-6.6,9.5
	c-6.1,7.5-12.1,15-18.2,22.4c-10,12.3-20.1,24.6-30.1,36.9l-1.2,1.4c-0.1,0.2-0.3,0.4-0.1,0.6c0.2,0.1,0.4,0.2,0.6,0.2
	c0.7,0,1.4,0,2.1,0h56c0.7,0,1.4,0,2.1,0s1,0.3,1.1,1.2c0,0.5,0,0.9,0,1.4c0,4.9,0,9.7,0,14.6c0,0.6,0,1.2-0.1,1.8
	c0,0.3-0.3,0.6-0.6,0.6c-0.7,0-1.4,0.1-2.1,0.1L346,327.9z"/>
<path class="st4" d="M366.2,385.5c1,6.7-0.5,12.6-5,17.8c-3.2,3.6-7.3,5.3-11.9,6.2c-2.7,0.5-5.6,0.5-8.3-0.2
	c-8.6-2.2-13.7-7.9-15.9-16.3c-0.8-3.1-0.9-6.3-0.4-9.4c1.4-8.6,7.7-15.6,16.1-17.8c4-1,8.2-0.8,12.1,0.4c4.3,1.5,7.9,4.4,10.3,8.2
	c0.3,0.4,0.4,0.8,0,1.2c-1.8,1.7-3.7,3.5-5.5,5.1c-0.8-0.5-1-1.1-1.5-1.7c-3.4-4-7.5-5.7-12.7-4.4c-4.9,1.4-8.5,5.5-9.2,10.5
	c-0.7,5.2,0.9,9.6,5.1,12.9c3.4,2.8,8,3.4,12,1.6c2.4-1.1,4.3-3.1,5.1-5.6c-0.6-0.5-1.1-0.3-1.6-0.3c-2.5,0-5.1,0-7.6,0
	c-0.4,0.1-0.8-0.2-0.8-0.6c0-0.1,0-0.1,0-0.2v-6.7c0-0.4,0.3-0.8,0.7-0.9c0.1,0,0.1,0,0.2,0c0.4,0,0.8,0,1.1,0h16.2
	C365.2,385.2,365.7,385.3,366.2,385.5z"/>
<path class="st5" d="M266.1,387.3v-18.9c0-0.6,0-1.2,0-1.9c0-0.4,0.3-0.7,0.7-0.7c0,0,0,0,0,0c0.4,0,0.8,0,1.1,0c4.2,0,8.3,0,12.5,0
	c2.5-0.1,4.9,0.3,7.3,0.9c7.2,2.3,11.6,7.3,13.4,14.5c1.1,4.4,1,8.9-0.2,13.2c-2.2,7.5-7.2,12.1-14.8,14c-1.7,0.4-3.5,0.6-5.3,0.6
	h-13.1c-0.3,0-0.6,0-0.9,0c-0.4,0-0.7-0.3-0.7-0.7c0,0,0,0,0,0c0-0.6,0-1.2,0-1.9L266.1,387.3z M275.5,387.3c0,3,0,6,0,9
	c-0.1,1.4-0.1,2.8,0.2,4.1c1.4,0.6,2.9,0.2,4.3,0.2c2.1,0,4.1-0.4,6-1.4c2.7-1.2,4.7-3.4,5.5-6.2c1-3.3,1.1-6.7,0.4-10
	c-0.3-1.3-0.8-2.5-1.4-3.6c-1.1-2-2.9-3.5-5-4.2c-2-0.7-4-1.1-6.1-1.2c-1-0.1-2,0-3,0c-0.6,0-0.8,0.4-0.8,0.9c0,0.5,0,1.1,0,1.6
	C275.5,380,275.5,383.7,275.5,387.3z"/>
<path class="st4" d="M416.7,408.8c-0.2-0.8,0.4-1.5,0.6-2.2c4.5-11.2,9-22.5,13.5-33.7c0.8-2.1,1.7-4.1,2.5-6.2
	c0.2-0.7,0.9-1.1,1.6-1c1.8,0,3.5,0,5.3,0c0.5-0.1,0.9,0.2,1.1,0.7c0.2,0.6,0.5,1.1,0.7,1.7l15.7,38.5c0.2,0.5,0.4,1,0.6,1.5
	s0,0.9-0.6,0.9c-2.5,0-5.1,0-7.6,0c-0.6,0-1-0.4-1.2-0.9c-0.7-1.8-1.4-3.6-2.2-5.4c-0.2-0.6-0.5-1.1-0.7-1.7
	c-0.1-0.3-0.4-0.5-0.7-0.5h-0.7c-4.7,0-9.4,0-14.1,0c-0.9-0.1-1.7,0.5-1.8,1.3c-0.8,2.2-1.7,4.3-2.6,6.4c-0.1,0.4-0.5,0.8-1,0.7
	c-2.6,0-5.2,0-7.9,0C417,409.1,416.9,408.9,416.7,408.8z M442.3,392.8c0-0.3-0.1-0.7-0.2-1c-1.4-3.6-2.9-7.1-4.3-10.7
	c-0.1-0.3-0.4-0.5-0.7-0.5c-1.5,4-3.2,7.9-4.8,12.2C435.8,392.8,438.9,392.8,442.3,392.8L442.3,392.8z"/>
<path class="st6" d="M388,374.6v-8c0-0.6,0.4-0.8,0.9-0.8s1.1,0,1.6,0h24.3c0.5,0,1.1,0,1.6,0c0.4,0,0.7,0.2,0.7,0.6c0,0,0,0,0,0.1
	c0,2.5,0,5.1,0,7.6c0,0.6-0.4,0.8-0.9,0.8c-2.1,0-4.2,0-6.2,0c-3,0-2.8-0.3-2.8,2.7c0,9.8,0,19.6,0,29.4c0,2.1,0.1,2.1-2,2.1
	s-4.3,0-6.5,0c-0.8,0-0.9-0.2-1-1c0-0.6,0-1.2,0-1.9v-28.2c0-0.7,0-1.4,0-2.1s-0.2-1-1-1c-1.3,0-2.6,0-3.9,0h-3.7
	C388.7,375,388.3,374.8,388,374.6z"/>
<path class="st7" d="M474.7,399.8h2.6c3,0,6,0,9,0c1,0,1.1,0.1,1.1,1c0,2.5,0,4.9,0,7.4c0,0.5-0.2,0.9-0.8,0.9h-20.1
	c-1,0-1.1-0.2-1.2-1.3c0-0.5,0-0.9,0-1.4v-37.9c0-0.5,0-1.1,0-1.6c0-0.9,0.2-1.1,1.1-1.1c2.4,0,4.8,0,7.2,0c0.9,0,1,0.2,1,1.1
	c0,0.6,0,1.2,0,1.9L474.7,399.8L474.7,399.8z"/>
<path class="st8" d="M382.3,387.5v19.2c0,0.5,0,1.1,0,1.6s-0.3,0.8-0.9,0.8c-0.7,0-1.4,0-2.1,0h-5.5c-0.5,0-0.9-0.2-0.9-0.8
	c0-0.6,0-1.1,0-1.6v-38.3c0-2.8-0.2-2.6,2.6-2.6c1.7,0,3.4,0,5.1,0s1.7,0,1.7,1.6c0,3.5,0,7.1,0,10.6L382.3,387.5z"/>
<path class="st5" d="M308.8,387.3v-18.9c0-0.6,0-1.2,0-1.8c0-0.4,0.2-0.7,0.6-0.7c0,0,0.1,0,0.1,0h7.9c0.4,0,0.7,0.3,0.7,0.6
	c0,0,0,0.1,0,0.1c0,0.5,0,1.1,0,1.6c0,12.8,0,25.7,0,38.6c0,0.5,0,1.1,0,1.6c0,0.4-0.3,0.7-0.6,0.7c0,0-0.1,0-0.1,0h-7.8
	c-0.4,0-0.7-0.3-0.7-0.6c0,0,0-0.1,0-0.1c0-0.6,0-1.2,0-1.9L308.8,387.3z"/>
<path class="st9" d="M207.6,284.5v-19.9c0-0.6,0-1.2,0-1.9c0-0.6,0.2-0.9,0.8-0.9c0.4,0,0.8,0,1.2,0h34.7c3,0,6,0.5,8.9,1.4
	c8.3,2.8,13.1,8.6,14.5,17.2c0.6,3.6,0.4,7.3-0.6,10.8c-2.2,7.8-7.3,12.6-15,15c-2.8,0.8-5.7,1.2-8.7,1.1c-2.9,0-5.7,0-8.6,0h-23.8
	c-0.5,0-1.1,0-1.6,0c-1.8,0-1.8-0.1-1.8-1.8C207.6,298.5,207.6,291.5,207.6,284.5z"/>
<path class="st9" d="M207.6,220.2c0-6.5,0-13,0-19.4c0-2.1,0-2.1,2-2.1c10.6,0,21.3,0,31.9,0c3.6,0,7.1,0.5,10.5,1.7
	c5.3,1.9,9.4,5.2,11.8,10.4c0.9,2.1,1.5,4.4,1.7,6.7c0.3,2.8,0.1,5.6-0.5,8.3c-1.1,5.4-4.6,9.9-9.5,12.5c-3.9,2-8.2,3.1-12.6,3.2
	c-1.6,0.1-3.2,0-4.9,0h-27.5c-0.7,0-1.4,0-2.1,0c-0.4,0-0.7-0.3-0.7-0.6c0,0,0,0,0-0.1c0-0.6,0-1.2,0-1.9L207.6,220.2z"/>
<path class="st10" d="M275.5,387.3c0-3.6,0-7.2,0-10.9c0-0.5,0-1.1,0-1.6s0.3-0.9,0.8-0.9c1,0,2-0.1,3,0c2.1,0.1,4.1,0.5,6.1,1.2
	c2.1,0.7,3.9,2.3,5,4.2c0.7,1.1,1.2,2.4,1.5,3.7c0.7,3.3,0.6,6.8-0.3,10.1c-0.8,2.8-2.8,5-5.5,6.2c-1.9,0.9-3.9,1.4-6,1.4
	c-1.4,0-2.9,0.4-4.3-0.2c-0.2-1.4-0.3-2.7-0.2-4.1C275.5,393.3,275.5,390.3,275.5,387.3z"/>
<path class="st10" d="M442.3,392.8c-3.4,0-6.6,0-10,0c1.5-4.3,3.2-8.2,4.8-12.2c0.3,0,0.6,0.2,0.7,0.5c1.4,3.5,2.9,7.1,4.3,10.7
	C442.2,392.1,442.3,392.4,442.3,392.8z"/>
</svg>
